<svg width="80" height="70" viewBox="0 0 80 70" fill="none" xmlns="http://www.w3.org/2000/svg">
<rect x="50" y="29" width="30" height="29" rx="2" fill="#AFC80D"/>
<rect x="26" y="10" width="30" height="48" rx="2" fill="#FFCF1F"/>
<rect width="30" height="58" rx="2" fill="#E52E31"/>
<path d="M0 69.1114V63.1198H2.73902C3.28683 63.1198 3.7576 63.2083 4.15133 63.3852C4.55077 63.5621 4.85891 63.8189 5.07575 64.1555C5.29259 64.4865 5.40101 64.8802 5.40101 65.3367C5.40101 65.7875 5.29259 66.1784 5.07575 66.5094C4.85891 66.8403 4.55077 67.0971 4.15133 67.2797C3.7576 67.4566 3.28683 67.5451 2.73902 67.5451H0.941539L1.69477 66.809V69.1114H0ZM1.69477 66.9887L0.941539 66.2098H2.63631C2.9901 66.2098 3.25259 66.1328 3.42378 65.9787C3.60067 65.8246 3.68912 65.6106 3.68912 65.3367C3.68912 65.0571 3.60067 64.8403 3.42378 64.6862C3.25259 64.5321 2.9901 64.4551 2.63631 64.4551H0.941539L1.69477 63.6762V66.9887Z" fill="black"/>
<path d="M7.29867 65.4394H10.0805V66.7062H7.29867V65.4394ZM7.4185 67.8019H10.5513V69.1114H5.74085V63.1198H10.44V64.4294H7.4185V67.8019Z" fill="black"/>
<path d="M15.0947 63.1198H16.7894V69.1114H15.0947V63.1198ZM12.7836 69.1114H11.0888V63.1198H12.7836V69.1114ZM15.2145 66.7747H12.6638V65.371H15.2145V66.7747Z" fill="black"/>
<path d="M18.9756 69.1114V64.0871L19.3522 64.4637H17.1353V63.1198H22.4764V64.4637H20.268L20.6446 64.0871V69.1114H18.9756Z" fill="black"/>
<path d="M21.9296 69.1114L24.5744 63.1198H26.2435L28.897 69.1114H27.1337L25.0623 63.9501H25.73L23.6586 69.1114H21.9296ZM23.3761 67.9474L23.8127 66.6977H26.74L27.1765 67.9474H23.3761Z" fill="black"/>
<path d="M31.9908 69.2313C31.5172 69.2313 31.0778 69.1571 30.6726 69.0087C30.2732 68.8547 29.9251 68.6378 29.6284 68.3582C29.3374 68.0786 29.1091 67.7505 28.9436 67.3739C28.7782 66.9916 28.6954 66.5721 28.6954 66.1156C28.6954 65.6591 28.7782 65.2426 28.9436 64.866C29.1091 64.4836 29.3374 64.1527 29.6284 63.8731C29.9251 63.5935 30.2732 63.3795 30.6726 63.2311C31.0778 63.077 31.5172 63 31.9908 63C32.5443 63 33.0379 63.097 33.4716 63.291C33.911 63.485 34.2762 63.7646 34.5672 64.1298L33.4887 65.1056C33.2947 64.8774 33.0807 64.7033 32.8467 64.5835C32.6185 64.4637 32.3617 64.4037 32.0764 64.4037C31.831 64.4037 31.6056 64.4437 31.4002 64.5236C31.1948 64.6035 31.0179 64.7204 30.8695 64.8745C30.7269 65.0229 30.6127 65.2026 30.5271 65.4138C30.4472 65.6249 30.4073 65.8589 30.4073 66.1156C30.4073 66.3724 30.4472 66.6064 30.5271 66.8175C30.6127 67.0286 30.7269 67.2112 30.8695 67.3653C31.0179 67.5137 31.1948 67.6278 31.4002 67.7077C31.6056 67.7876 31.831 67.8275 32.0764 67.8275C32.3617 67.8275 32.6185 67.7676 32.8467 67.6478C33.0807 67.5279 33.2947 67.3539 33.4887 67.1257L34.5672 68.1014C34.2762 68.4609 33.911 68.7405 33.4716 68.9403C33.0379 69.1343 32.5443 69.2313 31.9908 69.2313Z" fill="black"/>
<path d="M36.4626 65.4394H39.2445V66.7062H36.4626V65.4394ZM36.5825 67.8019H39.7152V69.1114H34.9048V63.1198H39.604V64.4294H36.5825V67.8019Z" fill="black"/>
<path d="M40.2528 69.1114V63.1198H42.9918C43.5396 63.1198 44.0104 63.2083 44.4041 63.3852C44.8036 63.5621 45.1117 63.8189 45.3286 64.1555C45.5454 64.4865 45.6538 64.8802 45.6538 65.3367C45.6538 65.7875 45.5454 66.1784 45.3286 66.5094C45.1117 66.8403 44.8036 67.0971 44.4041 67.2797C44.0104 67.4566 43.5396 67.5451 42.9918 67.5451H41.1943L41.9476 66.809V69.1114H40.2528ZM41.9476 66.9887L41.1943 66.2098H42.8891C43.2429 66.2098 43.5054 66.1328 43.6766 65.9787C43.8535 65.8246 43.9419 65.6106 43.9419 65.3367C43.9419 65.0571 43.8535 64.8403 43.6766 64.6862C43.5054 64.5321 43.2429 64.4551 42.8891 64.4551H41.1943L41.9476 63.6762V66.9887Z" fill="black"/>
<path d="M45.9937 69.1114V63.1198H48.9039C49.6229 63.1198 50.1792 63.2568 50.573 63.5307C50.9724 63.7989 51.1721 64.1812 51.1721 64.6777C51.1721 65.1627 50.9867 65.545 50.6158 65.8246C50.2448 66.0985 49.7484 66.2355 49.1264 66.2355L49.2976 65.8332C49.9709 65.8332 50.4959 65.9673 50.8725 66.2355C51.2549 66.498 51.446 66.886 51.446 67.3996C51.446 67.9245 51.2406 68.3411 50.8297 68.6492C50.4246 68.9574 49.8368 69.1114 49.0665 69.1114H45.9937ZM47.6627 67.896H48.998C49.2434 67.896 49.426 67.8446 49.5458 67.7419C49.6714 67.6335 49.7341 67.4766 49.7341 67.2712C49.7341 67.0657 49.6714 66.9145 49.5458 66.8175C49.426 66.7148 49.2434 66.6634 48.998 66.6634H47.6627V67.896ZM47.6627 65.5165H48.7412C48.9809 65.5165 49.1606 65.468 49.2805 65.371C49.4003 65.2683 49.4602 65.1199 49.4602 64.9259C49.4602 64.7319 49.4003 64.5864 49.2805 64.4893C49.1606 64.3866 48.9809 64.3353 48.7412 64.3353H47.6627V65.5165Z" fill="black"/>
<path d="M51.9351 69.1114V63.1198H53.6042V66.6378L56.0779 63.1198H57.6699V69.1114H56.0009V65.6021L53.5357 69.1114H51.9351Z" fill="black"/>
<path d="M61.4473 69.2313C60.9737 69.2313 60.5343 69.1571 60.1292 69.0087C59.7297 68.8547 59.3817 68.6378 59.0849 68.3582C58.7939 68.0786 58.5657 67.7505 58.4002 67.3739C58.2347 66.9916 58.1519 66.5721 58.1519 66.1156C58.1519 65.6591 58.2347 65.2426 58.4002 64.866C58.5657 64.4836 58.7939 64.1527 59.0849 63.8731C59.3817 63.5935 59.7297 63.3795 60.1292 63.2311C60.5343 63.077 60.9737 63 61.4473 63C62.0008 63 62.4944 63.097 62.9281 63.291C63.3675 63.485 63.7327 63.7646 64.0237 64.1298L62.9452 65.1056C62.7512 64.8774 62.5372 64.7033 62.3033 64.5835C62.075 64.4637 61.8182 64.4037 61.5329 64.4037C61.2876 64.4037 61.0622 64.4437 60.8567 64.5236C60.6513 64.6035 60.4744 64.7204 60.326 64.8745C60.1834 65.0229 60.0693 65.2026 59.9837 65.4138C59.9038 65.6249 59.8638 65.8589 59.8638 66.1156C59.8638 66.3724 59.9038 66.6064 59.9837 66.8175C60.0693 67.0286 60.1834 67.2112 60.326 67.3653C60.4744 67.5137 60.6513 67.6278 60.8567 67.7077C61.0622 67.7876 61.2876 67.8275 61.5329 67.8275C61.8182 67.8275 62.075 67.7676 62.3033 67.6478C62.5372 67.5279 62.7512 67.3539 62.9452 67.1257L64.0237 68.1014C63.7327 68.4609 63.3675 68.7405 62.9281 68.9403C62.4944 69.1343 62.0008 69.2313 61.4473 69.2313Z" fill="black"/>
<path d="M66.4243 69.1114V63.1198H68.0934V65.3624H69.6427V66.7833H68.0934V69.1114H66.4243ZM71.8938 69.2313C71.4259 69.2313 70.9951 69.1542 70.6013 69.0002C70.2076 68.8461 69.8624 68.6293 69.5656 68.3497C69.2746 68.07 69.0492 67.7419 68.8894 67.3653C68.7297 66.983 68.6498 66.5664 68.6498 66.1156C68.6498 65.6648 68.7297 65.2511 68.8894 64.8745C69.0492 64.4922 69.2746 64.1612 69.5656 63.8816C69.8624 63.602 70.2076 63.3852 70.6013 63.2311C70.9951 63.077 71.4259 63 71.8938 63C72.356 63 72.784 63.077 73.1777 63.2311C73.5772 63.3852 73.9195 63.602 74.2049 63.8816C74.4959 64.1612 74.7213 64.4922 74.8811 64.8745C75.0408 65.2511 75.1207 65.6648 75.1207 66.1156C75.1207 66.5664 75.0408 66.983 74.8811 67.3653C74.7213 67.7419 74.4959 68.07 74.2049 68.3497C73.9195 68.6293 73.5772 68.8461 73.1777 69.0002C72.784 69.1542 72.356 69.2313 71.8938 69.2313ZM71.8852 67.8275C72.1021 67.8275 72.3018 67.7876 72.4844 67.7077C72.667 67.6278 72.8268 67.5137 72.9637 67.3653C73.1064 67.217 73.2148 67.0372 73.289 66.8261C73.3689 66.6149 73.4088 66.3781 73.4088 66.1156C73.4088 65.8531 73.3689 65.6163 73.289 65.4052C73.2148 65.1941 73.1064 65.0143 72.9637 64.866C72.8268 64.7176 72.667 64.6035 72.4844 64.5236C72.3018 64.4437 72.1049 64.4037 71.8938 64.4037C71.677 64.4037 71.4772 64.4437 71.2946 64.5236C71.112 64.6035 70.9494 64.7176 70.8068 64.866C70.6698 65.0143 70.5614 65.1941 70.4815 65.4052C70.4073 65.6163 70.3702 65.8531 70.3702 66.1156C70.3702 66.3781 70.4073 66.6149 70.4815 66.8261C70.5614 67.0372 70.6698 67.217 70.8068 67.3653C70.9494 67.5137 71.112 67.6278 71.2946 67.7077C71.4772 67.7876 71.6741 67.8275 71.8852 67.8275Z" fill="black"/>
<path d="M75.609 69.1114V63.1198H80L79.9914 64.4637H76.9015L77.2781 64.0871V69.1114H75.609Z" fill="black"/>
</svg>
