<svg viewBox="0 0 1600 577" fill="none" xmlns="http://www.w3.org/2000/svg">
<path d="M1053.96 68.6714C922.743 130.683 965.573 303.539 970.932 321.585C976.292 339.631 1001.35 389.583 1029.62 425.586C1057.88 461.588 1127.79 518.18 1258.37 523.695C1388.95 529.21 1529.42 450.39 1547.68 392.258C1565.94 334.126 1594.41 128.553 1536.7 99.4735C1488.1 77.3196 1447.64 114.509 1393.66 79.5518C1339.68 44.5946 1185.17 6.65968 1053.96 68.6714Z" fill="#C9E3B6"/>
<path d="M1020.41 136.446H890.047C884.89 136.446 880.709 140.627 880.709 145.786V244.798C880.709 249.956 884.89 254.138 890.047 254.138H1020.41C1025.57 254.138 1029.75 249.956 1029.75 244.798V145.786C1029.75 140.627 1025.57 136.446 1020.41 136.446Z" fill="#D8D8D8"/>
<path d="M1433.02 116.632H1152.31C1134.18 116.632 1119.49 131.328 1119.49 149.457V434.245C1119.49 452.374 1134.18 467.071 1152.31 467.071H1433.02C1451.14 467.071 1465.84 452.374 1465.84 434.245V149.457C1465.84 131.328 1451.14 116.632 1433.02 116.632Z" fill="white"/>
<path fill-rule="evenodd" clip-rule="evenodd" d="M1152.31 119.412C1135.72 119.412 1122.27 132.864 1122.27 149.457V434.245C1122.27 450.839 1135.72 464.291 1152.31 464.291H1433.02C1449.61 464.291 1463.06 450.839 1463.06 434.245V149.457C1463.06 132.864 1449.61 119.412 1433.02 119.412H1152.31ZM1116.71 149.457C1116.71 129.793 1132.65 113.851 1152.31 113.851H1433.02C1452.68 113.851 1468.62 129.793 1468.62 149.457V434.245C1468.62 453.91 1452.68 469.851 1433.02 469.851H1152.31C1132.65 469.851 1116.71 453.91 1116.71 434.245V149.457Z" fill="#BCB7B1"/>
<path d="M914.582 138.245L1007.68 138.252L914.582 138.245Z" fill="#D40000"/>
<path fill-rule="evenodd" clip-rule="evenodd" d="M912.887 138.245C912.887 137.308 913.646 136.55 914.582 136.55L1007.68 136.557C1008.62 136.557 1009.38 137.316 1009.38 138.252C1009.38 139.189 1008.62 139.948 1007.68 139.948L914.581 139.94C913.645 139.94 912.887 139.181 912.887 138.245Z" fill="#C1C0BF"/>
<path d="M914.584 252.468L1006.93 252.418L914.584 252.468Z" fill="#D40000"/>
<path fill-rule="evenodd" clip-rule="evenodd" d="M1008.63 252.417C1008.63 253.353 1007.87 254.113 1006.93 254.113L914.584 254.164C913.648 254.164 912.889 253.406 912.889 252.469C912.888 251.533 913.647 250.774 914.583 250.773L1006.93 250.723C1007.87 250.722 1008.63 251.481 1008.63 252.417Z" fill="#C1C0BF"/>
<path d="M1151.31 116.646H1028.31C1018.57 116.646 1010.68 124.544 1010.68 134.288V270.523C1010.68 280.266 1018.57 288.164 1028.31 288.164H1151.31C1161.05 288.164 1168.95 280.266 1168.95 270.523V134.288C1168.95 124.544 1161.05 116.646 1151.31 116.646Z" fill="#DCD4D4"/>
<path fill-rule="evenodd" clip-rule="evenodd" d="M1028.31 119.426C1020.11 119.426 1013.46 126.08 1013.46 134.287V270.523C1013.46 278.73 1020.11 285.384 1028.31 285.384H1151.31C1159.52 285.384 1166.17 278.73 1166.17 270.523V134.287C1166.17 126.08 1159.52 119.426 1151.31 119.426H1028.31ZM1007.9 134.287C1007.9 123.009 1017.04 113.866 1028.31 113.866H1151.31C1162.59 113.866 1171.73 123.009 1171.73 134.287V270.523C1171.73 281.801 1162.59 290.944 1151.31 290.944H1028.31C1017.04 290.944 1007.9 281.801 1007.9 270.523V134.287Z" fill="#BCB7B1"/>
<path d="M1189.44 119.362H1122.22V326.669H1189.44V119.362Z" fill="white"/>
<path d="M1436.7 143.325H1251.07C1250.78 143.325 1250.54 143.559 1250.54 143.848V165.487C1250.54 165.776 1250.78 166.011 1251.07 166.011H1436.7C1436.99 166.011 1437.22 165.776 1437.22 165.487V143.848C1437.22 143.559 1436.99 143.325 1436.7 143.325Z" fill="#E2D7AE"/>
<path fill-rule="evenodd" clip-rule="evenodd" d="M1251.15 143.928V165.407H1436.62V143.928H1251.15ZM1249.94 143.848C1249.94 143.226 1250.45 142.721 1251.07 142.721H1436.7C1437.32 142.721 1437.82 143.226 1437.82 143.848V165.487C1437.82 166.11 1437.32 166.614 1436.7 166.614H1251.07C1250.45 166.614 1249.94 166.11 1249.94 165.487V143.848Z" fill="#B9AE8D"/>
<path d="M1436.73 167.251H1251.1C1250.81 167.251 1250.57 167.486 1250.57 167.775V189.414C1250.57 189.703 1250.81 189.937 1251.1 189.937H1436.73C1437.02 189.937 1437.25 189.703 1437.25 189.414V167.775C1437.25 167.486 1437.02 167.251 1436.73 167.251Z" fill="#E2D7AE"/>
<path fill-rule="evenodd" clip-rule="evenodd" d="M1251.18 167.855V189.334H1436.65V167.855H1251.18ZM1249.97 167.775C1249.97 167.153 1250.48 166.648 1251.1 166.648H1436.73C1437.35 166.648 1437.85 167.153 1437.85 167.775V189.414C1437.85 190.036 1437.35 190.541 1436.73 190.541H1251.1C1250.48 190.541 1249.97 190.036 1249.97 189.414V167.775Z" fill="#B9AE8D"/>
<path d="M1436.73 191.205H1251.1C1250.81 191.205 1250.57 191.439 1250.57 191.729V213.367C1250.57 213.656 1250.81 213.891 1251.1 213.891H1436.73C1437.02 213.891 1437.25 213.656 1437.25 213.367V191.729C1437.25 191.439 1437.02 191.205 1436.73 191.205Z" fill="#E2D7AE"/>
<path fill-rule="evenodd" clip-rule="evenodd" d="M1251.18 191.809V213.287H1436.65V191.809H1251.18ZM1249.97 191.729C1249.97 191.106 1250.48 190.601 1251.1 190.601H1436.73C1437.35 190.601 1437.85 191.106 1437.85 191.729V213.367C1437.85 213.99 1437.35 214.495 1436.73 214.495H1251.1C1250.48 214.495 1249.97 213.99 1249.97 213.367V191.729Z" fill="#B9AE8D"/>
<path d="M1342.89 406.865H1157.27C1156.98 406.865 1156.74 407.1 1156.74 407.389V429.028C1156.74 429.317 1156.98 429.551 1157.27 429.551H1342.89C1343.18 429.551 1343.42 429.317 1343.42 429.028V407.389C1343.42 407.1 1343.18 406.865 1342.89 406.865Z" fill="#E2D7AE"/>
<path fill-rule="evenodd" clip-rule="evenodd" d="M1157.35 407.469V428.948H1342.81V407.469H1157.35ZM1156.14 407.389C1156.14 406.766 1156.64 406.262 1157.27 406.262H1342.89C1343.52 406.262 1344.02 406.766 1344.02 407.389V429.028C1344.02 429.65 1343.52 430.155 1342.89 430.155H1157.27C1156.64 430.155 1156.14 429.65 1156.14 429.028V407.389Z" fill="#B9AE8D"/>
<path d="M1342.91 384.654H1157.28C1156.99 384.654 1156.76 384.888 1156.76 385.177V406.816C1156.76 407.105 1156.99 407.34 1157.28 407.34H1342.91C1343.2 407.34 1343.43 407.105 1343.43 406.816V385.177C1343.43 384.888 1343.2 384.654 1342.91 384.654Z" fill="#E2D7AE"/>
<path fill-rule="evenodd" clip-rule="evenodd" d="M1157.36 385.257V406.736H1342.83V385.257H1157.36ZM1156.15 385.177C1156.15 384.555 1156.66 384.05 1157.28 384.05H1342.91C1343.53 384.05 1344.04 384.555 1344.04 385.177V406.816C1344.04 407.439 1343.53 407.943 1342.91 407.943H1157.28C1156.66 407.943 1156.15 407.438 1156.15 406.816V385.177Z" fill="#B9AE8D"/>
<path d="M1343.14 362.79H1157.51C1157.22 362.79 1156.99 363.025 1156.99 363.314V384.953C1156.99 385.242 1157.22 385.476 1157.51 385.476H1343.14C1343.43 385.476 1343.67 385.242 1343.67 384.953V363.314C1343.67 363.025 1343.43 362.79 1343.14 362.79Z" fill="#E2D7AE"/>
<path fill-rule="evenodd" clip-rule="evenodd" d="M1157.59 363.394V384.873H1343.06V363.394H1157.59ZM1156.39 363.314C1156.39 362.691 1156.89 362.187 1157.51 362.187H1343.14C1343.77 362.187 1344.27 362.691 1344.27 363.314V384.953C1344.27 385.575 1343.77 386.08 1343.14 386.08H1157.51C1156.89 386.08 1156.39 385.575 1156.39 384.953V363.314Z" fill="#B9AE8D"/>
<path d="M1434.49 155.518H1252.84C1252.55 155.518 1252.31 155.752 1252.31 156.042V177.686C1252.31 177.976 1252.55 178.21 1252.84 178.21H1434.49C1434.78 178.21 1435.02 177.976 1435.02 177.686V156.042C1435.02 155.752 1434.78 155.518 1434.49 155.518Z" fill="#F3EFDD"/>
<path fill-rule="evenodd" clip-rule="evenodd" d="M1252.91 156.115V177.613H1434.42V156.115H1252.91ZM1251.72 156.042C1251.72 155.422 1252.22 154.921 1252.84 154.921H1434.49C1435.11 154.921 1435.61 155.422 1435.61 156.042V177.686C1435.61 178.305 1435.11 178.807 1434.49 178.807H1252.84C1252.22 178.807 1251.72 178.305 1251.72 177.686V156.042Z" fill="#B9AE8D"/>
<path d="M1341.29 371.741H1159.63C1159.34 371.741 1159.11 371.976 1159.11 372.265V393.91C1159.11 394.199 1159.34 394.434 1159.63 394.434H1341.29C1341.58 394.434 1341.81 394.199 1341.81 393.91V372.265C1341.81 371.976 1341.58 371.741 1341.29 371.741Z" fill="#F3EFDD"/>
<path fill-rule="evenodd" clip-rule="evenodd" d="M1159.7 372.338V393.837H1341.21V372.338H1159.7ZM1158.51 372.265C1158.51 371.646 1159.01 371.145 1159.63 371.145H1341.29C1341.9 371.145 1342.41 371.646 1342.41 372.265V393.91C1342.41 394.529 1341.9 395.03 1341.29 395.03H1159.63C1159.01 395.03 1158.51 394.529 1158.51 393.91V372.265Z" fill="#B9AE8D"/>
<path d="M1438.24 429.027V281.626C1438.24 281.097 1437.82 280.669 1437.29 280.669H1397.73C1397.2 280.669 1396.77 281.097 1396.77 281.626V429.027C1396.77 429.556 1397.2 429.985 1397.73 429.985H1437.29C1437.82 429.985 1438.24 429.556 1438.24 429.027Z" fill="#F3EFDD"/>
<path fill-rule="evenodd" clip-rule="evenodd" d="M1437.51 281.626C1437.51 281.5 1437.41 281.398 1437.29 281.398H1397.73C1397.6 281.398 1397.5 281.5 1397.5 281.626V429.027C1397.5 429.153 1397.6 429.256 1397.73 429.256H1437.29C1437.41 429.256 1437.51 429.153 1437.51 429.027V281.626ZM1437.29 279.939C1438.22 279.939 1438.97 280.695 1438.97 281.626V429.027C1438.97 429.959 1438.22 430.714 1437.29 430.714H1397.73C1396.8 430.714 1396.04 429.959 1396.04 429.027V281.626C1396.04 280.695 1396.8 279.939 1397.73 279.939H1437.29Z" fill="#B9AE8D"/>
<path d="M1395.56 429.027V281.626C1395.56 281.097 1395.13 280.669 1394.6 280.669H1355.04C1354.52 280.669 1354.09 281.097 1354.09 281.626V429.027C1354.09 429.556 1354.52 429.985 1355.04 429.985H1394.6C1395.13 429.985 1395.56 429.556 1395.56 429.027Z" fill="#F3EFDD"/>
<path fill-rule="evenodd" clip-rule="evenodd" d="M1394.83 281.626C1394.83 281.5 1394.73 281.398 1394.6 281.398H1355.04C1354.92 281.398 1354.82 281.5 1354.82 281.626V429.027C1354.82 429.153 1354.92 429.256 1355.04 429.256H1394.6C1394.73 429.256 1394.83 429.153 1394.83 429.027V281.626ZM1394.6 279.939C1395.53 279.939 1396.29 280.695 1396.29 281.626V429.027C1396.29 429.959 1395.53 430.714 1394.6 430.714H1355.04C1354.11 430.714 1353.36 429.959 1353.36 429.027V281.626C1353.36 280.695 1354.11 279.939 1355.04 279.939H1394.6Z" fill="#B9AE8D"/>
<path d="M1341.29 395.031H1159.63C1159.34 395.031 1159.11 395.265 1159.11 395.554V417.199C1159.11 417.488 1159.34 417.723 1159.63 417.723H1341.29C1341.58 417.723 1341.81 417.488 1341.81 417.199V395.554C1341.81 395.265 1341.58 395.031 1341.29 395.031Z" fill="#F3EFDD"/>
<path fill-rule="evenodd" clip-rule="evenodd" d="M1159.7 395.628V417.126H1341.21V395.628H1159.7ZM1158.51 395.554C1158.51 394.935 1159.01 394.433 1159.63 394.433H1341.29C1341.91 394.433 1342.41 394.935 1342.41 395.554V417.199C1342.41 417.818 1341.91 418.32 1341.29 418.32H1159.63C1159.01 418.32 1158.51 417.818 1158.51 417.199V395.554Z" fill="#B9AE8D"/>
<path d="M1434.74 179.727H1253.08C1252.79 179.727 1252.56 179.962 1252.56 180.251V201.896C1252.56 202.185 1252.79 202.42 1253.08 202.42H1434.74C1435.03 202.42 1435.26 202.185 1435.26 201.896V180.251C1435.26 179.962 1435.03 179.727 1434.74 179.727Z" fill="#F3EFDD"/>
<path fill-rule="evenodd" clip-rule="evenodd" d="M1253.16 180.325V201.822H1434.66V180.325H1253.16ZM1251.96 180.251C1251.96 179.632 1252.46 179.13 1253.08 179.13H1434.74C1435.36 179.13 1435.86 179.632 1435.86 180.251V201.896C1435.86 202.515 1435.36 203.017 1434.74 203.017H1253.08C1252.46 203.017 1251.96 202.515 1251.96 201.896V180.251Z" fill="#B9AE8D"/>
<path d="M1011.72 152.578H1001.6C1001.4 152.578 1001.23 152.741 1001.23 152.941V237.786C1001.23 237.987 1001.4 238.149 1001.6 238.149H1011.72C1011.92 238.149 1012.08 237.987 1012.08 237.786V152.941C1012.08 152.741 1011.92 152.578 1011.72 152.578Z" fill="white"/>
<path d="M1012.02 148.655L1012.18 240.048L1012.02 148.655Z" fill="#D7D1CE"/>
<path fill-rule="evenodd" clip-rule="evenodd" d="M1012.02 147.735C1012.53 147.734 1012.94 148.145 1012.94 148.654L1013.1 240.046C1013.1 240.554 1012.69 240.967 1012.18 240.968C1011.67 240.969 1011.26 240.558 1011.26 240.049L1011.1 148.657C1011.1 148.149 1011.51 147.736 1012.02 147.735Z" fill="#BCB7B1"/>
<path d="M1010.71 238.019L1020.89 237.953L1010.71 238.019Z" fill="#D7D1CE"/>
<path fill-rule="evenodd" clip-rule="evenodd" d="M1023.67 237.935C1023.68 239.471 1022.44 240.723 1020.91 240.733L1010.72 240.799C1009.19 240.809 1007.94 239.572 1007.93 238.037C1007.92 236.501 1009.15 235.249 1010.69 235.239L1020.87 235.173C1022.4 235.163 1023.66 236.4 1023.67 237.935Z" fill="#BCB7B1"/>
<path d="M1010.65 151.792L1020.83 151.727L1010.65 151.792Z" fill="#D7D1CE"/>
<path fill-rule="evenodd" clip-rule="evenodd" d="M1023.61 151.709C1023.62 153.244 1022.39 154.497 1020.85 154.507L1010.67 154.572C1009.13 154.582 1007.88 153.346 1007.87 151.81C1007.86 150.275 1009.1 149.022 1010.63 149.012L1020.81 148.946C1022.35 148.937 1023.6 150.173 1023.61 151.709Z" fill="#BCB7B1"/>
<path d="M1089.25 93.2222C1103.58 93.2222 1115.19 81.6047 1115.19 67.2739C1115.19 52.9431 1103.58 41.3257 1089.25 41.3257C1074.92 41.3257 1063.31 52.9431 1063.31 67.2739C1063.31 81.6047 1074.92 93.2222 1089.25 93.2222Z" fill="#76BC3A"/>
<path d="M1049.94 393.896C1064.27 393.896 1075.88 382.279 1075.88 367.948C1075.88 353.617 1064.27 342 1049.94 342C1035.61 342 1024 353.617 1024 367.948C1024 382.279 1035.61 393.896 1049.94 393.896Z" fill="#76BC3A"/>
<path d="M1533.31 303.756C1547.64 303.756 1559.25 292.139 1559.25 277.808C1559.25 263.477 1547.64 251.86 1533.31 251.86C1518.98 251.86 1507.37 263.477 1507.37 277.808C1507.37 292.139 1518.98 303.756 1533.31 303.756Z" fill="#76BC3A"/>
<path d="M1514.21 176.005C1528.54 176.005 1540.16 164.387 1540.16 150.056C1540.16 135.725 1528.54 124.108 1514.21 124.108C1499.89 124.108 1488.27 135.725 1488.27 150.056C1488.27 164.387 1499.89 176.005 1514.21 176.005Z" fill="#76BC3A"/>
<path d="M1515.36 442.875C1529.69 442.875 1541.3 431.258 1541.3 416.927C1541.3 402.596 1529.69 390.979 1515.36 390.979C1501.04 390.979 1489.42 402.596 1489.42 416.927C1489.42 431.258 1501.04 442.875 1515.36 442.875Z" fill="#76BC3A"/>
<path d="M-52 137.146H889.304V255.767H-52V137.146Z" fill="#FFFDF5"/>
<path fill-rule="evenodd" clip-rule="evenodd" d="M889.304 140.853H-52V137.146H889.304V140.853ZM889.304 252.06H-52V255.767H889.304V252.06Z" fill="#D8D8D8"/>
<path d="M270.909 166.058H167.249C165.431 166.058 163.957 167.532 163.957 169.351V222.814C163.957 224.633 165.431 226.107 167.249 226.107H270.909C272.727 226.107 274.201 224.633 274.201 222.814V169.351C274.201 167.532 272.727 166.058 270.909 166.058Z" fill="#DFD5CD"/>
<path fill-rule="evenodd" clip-rule="evenodd" d="M167.25 166.985C165.943 166.985 164.884 168.044 164.884 169.351V222.814C164.884 224.121 165.943 225.18 167.25 225.18H270.91C272.216 225.18 273.275 224.121 273.275 222.814V169.351C273.275 168.044 272.216 166.985 270.91 166.985H167.25ZM163.031 169.351C163.031 167.02 164.92 165.131 167.25 165.131H270.91C273.24 165.131 275.128 167.02 275.128 169.351V222.814C275.128 225.144 273.24 227.034 270.91 227.034H167.25C164.92 227.034 163.031 225.144 163.031 222.814V169.351Z" fill="#948980"/>
<path d="M302.171 171.104H280.935C279.727 171.104 278.748 172.084 278.748 173.292V218.874C278.748 220.082 279.727 221.062 280.935 221.062H302.171C303.379 221.062 304.358 220.082 304.358 218.874V173.292C304.358 172.084 303.379 171.104 302.171 171.104Z" fill="#D91313"/>
<path fill-rule="evenodd" clip-rule="evenodd" d="M280.935 173.101C280.829 173.101 280.744 173.186 280.744 173.292V218.874C280.744 218.98 280.829 219.065 280.935 219.065H302.171C302.277 219.065 302.362 218.98 302.362 218.874V173.292C302.362 173.186 302.277 173.101 302.171 173.101H280.935ZM276.752 173.292C276.752 170.981 278.625 169.108 280.935 169.108H302.171C304.481 169.108 306.354 170.981 306.354 173.292V218.874C306.354 221.185 304.481 223.058 302.171 223.058H280.935C278.625 223.058 276.752 221.185 276.752 218.874V173.292Z" fill="#D91313" fill-opacity="0.991525"/>
<path d="M308.275 181.092C308.275 177.62 305.541 174.806 302.168 174.806C298.795 174.806 296.061 177.62 296.061 181.092V211.459C296.061 214.93 298.795 217.745 302.168 217.745C305.541 217.745 308.275 214.93 308.275 211.459V181.092Z" fill="#D91313"/>
<path fill-rule="evenodd" clip-rule="evenodd" d="M302.169 178.853C301.139 178.853 300.108 179.745 300.108 181.092V211.459C300.108 212.805 301.139 213.698 302.169 213.698C303.199 213.698 304.23 212.805 304.23 211.459V181.092C304.23 179.745 303.199 178.853 302.169 178.853ZM292.016 181.092C292.016 175.495 296.453 170.758 302.169 170.758C307.885 170.758 312.322 175.495 312.322 181.092V211.459C312.322 217.056 307.885 221.792 302.169 221.792C296.453 221.792 292.016 217.056 292.016 211.459V181.092Z" fill="#D91313"/>
<path d="M301.793 174.999C298.892 179.567 298.411 178.964 298.411 178.964C300.233 190.183 299.734 201.244 298.059 212.462C298.059 212.462 300.089 213.205 301.312 216.718C305.701 206.011 306.607 188.734 301.793 174.999H301.793Z" fill="#440606"/>
<path d="M289.646 177.523L292.476 177.392L296.215 177.564C296.215 177.564 296.533 177.375 296.828 176.92C297.96 175.175 299.493 173.928 299.044 173.923C297.301 173.902 289.191 173.923 289.191 173.923C289.584 176.132 289.469 177.502 289.469 177.502L289.646 177.523Z" fill="#440606"/>
<path d="M287.927 177.523L287.826 173.964L280.854 174.047C280.854 174.047 284.013 177.553 284.491 177.523C285.733 177.444 286.871 177.505 287.927 177.523L287.927 177.523Z" fill="#440606"/>
<path d="M289.668 213.661L292.497 213.791L296.236 213.619C296.236 213.619 296.555 213.808 296.849 214.263C297.981 216.008 299.514 217.255 299.066 217.261C297.323 217.281 289.213 217.261 289.213 217.261C289.606 215.052 289.491 213.681 289.491 213.681L289.668 213.661Z" fill="#440606"/>
<path d="M287.949 213.659L287.848 217.218L280.875 217.135C280.875 217.135 284.034 213.629 284.513 213.659C285.754 213.738 286.893 213.677 287.949 213.659L287.949 213.659Z" fill="#440606"/>
<path d="M311.154 183.936C311.779 183.577 311.838 181.535 311.286 179.377C310.734 177.219 309.78 175.761 309.156 176.12C308.532 176.48 308.473 178.521 309.025 180.679C309.576 182.838 310.53 184.296 311.154 183.936Z" fill="#E2BB14"/>
<path d="M311.154 208.905C311.779 209.265 311.838 211.306 311.286 213.465C310.734 215.623 309.78 217.081 309.156 216.721C308.532 216.362 308.473 214.321 309.025 212.162C309.576 210.004 310.53 208.546 311.154 208.905Z" fill="#E2BB14"/>
<path d="M300.972 226.834C302.791 224.921 303.539 222.701 302.643 221.874C301.746 221.047 299.545 221.927 297.726 223.84C295.906 225.752 295.158 227.973 296.055 228.8C296.951 229.627 299.153 228.747 300.972 226.834Z" fill="#D91313"/>
<path d="M300.784 165.958C302.604 167.871 303.352 170.092 302.455 170.919C301.559 171.746 299.357 170.866 297.538 168.953C295.719 167.04 294.971 164.819 295.867 163.992C296.764 163.165 298.965 164.046 300.784 165.958Z" fill="#D91313"/>
<path d="M270.197 174.424H167.315C167.128 174.424 166.977 174.575 166.977 174.762V188.75C166.977 188.937 167.128 189.088 167.315 189.088H270.197C270.384 189.088 270.535 188.937 270.535 188.75V174.762C270.535 174.575 270.384 174.424 270.197 174.424Z" fill="#F3EFDD"/>
<path fill-rule="evenodd" clip-rule="evenodd" d="M167.788 175.237V188.275H269.721V175.237H167.788ZM166.162 174.762C166.162 174.126 166.678 173.61 167.314 173.61H270.195C270.831 173.61 271.347 174.126 271.347 174.762V188.75C271.347 189.386 270.831 189.902 270.195 189.902H167.314C166.678 189.902 166.162 189.386 166.162 188.75V174.762Z" fill="#B9AE8D"/>
<path d="M270.232 189.812H167.35C167.163 189.812 167.012 189.964 167.012 190.151V204.139C167.012 204.326 167.163 204.477 167.35 204.477H270.232C270.419 204.477 270.57 204.326 270.57 204.139V190.151C270.57 189.964 270.419 189.812 270.232 189.812Z" fill="#F3EFDD"/>
<path fill-rule="evenodd" clip-rule="evenodd" d="M167.825 190.626V203.664H269.758V190.626H167.825ZM166.199 190.151C166.199 189.515 166.715 188.999 167.351 188.999H270.232C270.868 188.999 271.384 189.515 271.384 190.151V204.139C271.384 204.775 270.868 205.29 270.232 205.29H167.351C166.715 205.29 166.199 204.775 166.199 204.139V190.151Z" fill="#B9AE8D"/>
<path d="M270.232 205.84H167.35C167.163 205.84 167.012 205.992 167.012 206.179V220.166C167.012 220.353 167.163 220.505 167.35 220.505H270.232C270.419 220.505 270.57 220.353 270.57 220.166V206.179C270.57 205.992 270.419 205.84 270.232 205.84Z" fill="#F3EFDD"/>
<path fill-rule="evenodd" clip-rule="evenodd" d="M167.825 206.653V219.691H269.758V206.653H167.825ZM166.199 206.178C166.199 205.542 166.715 205.027 167.351 205.027H270.232C270.868 205.027 271.384 205.542 271.384 206.178V220.166C271.384 220.802 270.868 221.318 270.232 221.318H167.351C166.715 221.318 166.199 220.802 166.199 220.166V206.178Z" fill="#B9AE8D"/>
<path d="M269.175 197.407H169.736C169.551 197.407 169.4 197.558 169.4 197.743V211.619C169.4 211.805 169.551 211.955 169.736 211.955H269.175C269.361 211.955 269.511 211.805 269.511 211.619V197.743C269.511 197.558 269.361 197.407 269.175 197.407Z" fill="#E2D7AE"/>
<path fill-rule="evenodd" clip-rule="evenodd" d="M170.198 198.204V211.159H268.716V198.204H170.198ZM168.605 197.743C168.605 197.118 169.112 196.611 169.737 196.611H269.176C269.802 196.611 270.308 197.118 270.308 197.743V211.619C270.308 212.245 269.802 212.752 269.176 212.752H169.737C169.112 212.752 168.605 212.245 168.605 211.619V197.743Z" fill="#B9AE8D"/>
<path d="M268.915 181.781H169.476C169.291 181.781 169.141 181.932 169.141 182.117V195.994C169.141 196.179 169.291 196.329 169.476 196.329H268.915C269.101 196.329 269.251 196.179 269.251 195.994V182.117C269.251 181.932 269.101 181.781 268.915 181.781Z" fill="#E2D7AE"/>
<path fill-rule="evenodd" clip-rule="evenodd" d="M169.936 182.578V195.533H268.454V182.578H169.936ZM168.344 182.117C168.344 181.492 168.851 180.985 169.476 180.985H268.915C269.54 180.985 270.047 181.492 270.047 182.117V195.994C270.047 196.619 269.54 197.126 268.915 197.126H169.476C168.851 197.126 168.344 196.619 168.344 195.994V182.117Z" fill="#B9AE8D"/>
<path d="M267.565 189.239H170.015C169.828 189.239 169.676 189.391 169.676 189.578V203.605C169.676 203.792 169.828 203.944 170.015 203.944H267.565C267.753 203.944 267.904 203.792 267.904 203.605V189.578C267.904 189.391 267.753 189.239 267.565 189.239Z" fill="#F3EFDD"/>
<path fill-rule="evenodd" clip-rule="evenodd" d="M170.469 190.032V203.151H267.111V190.032H170.469ZM168.883 189.578C168.883 188.953 169.39 188.445 170.015 188.445H267.565C268.19 188.445 268.697 188.953 268.697 189.578V203.605C268.697 204.23 268.19 204.737 267.565 204.737H170.015C169.39 204.737 168.883 204.23 168.883 203.605V189.578Z" fill="#B9AE8D"/>
</svg>
